<svg width="66" height="65" viewBox="0 0 66 65" fill="none" xmlns="http://www.w3.org/2000/svg">
<path d="M64.0402 44.1987H63.1269C56.9215 57.832 46.6135 65.1734 31.5349 64.872C20.2335 64.6467 8.22152 57.7187 2.91485 44.1414H1.55885C1.73752 43.5854 2.28952 43.58 2.60819 43.2334C0.209518 35.9027 0.297519 28.568 3.08019 21.3387C5.46952 15.1347 9.44685 10.128 14.9669 6.38674C26.0122 -1.10259 40.7242 -0.91193 51.4962 6.7254C61.8548 14.0694 68.2655 28.28 63.2949 43.3934C63.4335 43.752 64.0202 43.688 64.0402 44.1987ZM62.5909 43.1534C66.5655 32.504 64.2095 17.7587 52.7415 8.49207C41.4175 -0.658596 25.2695 -0.830594 13.8949 7.92407C1.98819 17.088 -0.711815 32.0947 3.26552 42.928C4.09619 42.728 4.92552 42.3854 5.76685 42.3534C8.37485 42.2547 10.1962 40.956 11.5575 38.8494C11.6522 38.704 11.7642 38.5694 11.8762 38.436C13.4629 36.5427 14.6749 34.3334 16.5549 32.696C17.8629 31.556 18.8695 30.208 19.7655 28.7534C20.5882 27.4174 21.4669 26.1214 22.5229 24.9547C22.7629 24.6894 22.8735 24.3894 22.9509 24.032C23.4575 21.6867 24.7575 20.496 27.1309 20.168C27.9242 20.0587 28.7255 20.004 29.5189 19.9C30.0802 19.8267 30.5202 19.548 30.6389 18.964C30.7375 18.4694 30.6775 17.744 30.6775 17.744C30.5815 17.7267 29.8962 17.668 29.8895 17.5547C29.7709 15.512 29.3642 13.332 30.0455 11.3307C30.5335 9.89741 31.7749 9.85874 33.0615 9.89607C34.6242 9.94541 35.4215 10.5747 35.7069 12.1107C36.0309 13.8507 35.7882 15.7387 35.6589 17.4734C35.6469 17.6294 34.9775 17.708 34.8829 17.7267C34.8829 17.7267 34.7629 18.5027 34.9162 19.036C35.0895 19.6414 35.5655 19.8867 36.1855 19.9374C37.0189 20.0067 37.8469 20.124 38.6775 20.224C40.8815 20.492 42.0202 21.9174 42.5549 23.9107C42.6882 24.408 42.8962 24.7907 43.1989 25.18C43.9242 26.1134 44.6735 27.036 45.3042 28.0347C46.4589 29.864 47.6508 31.6387 49.3295 33.056C50.1522 33.7507 50.7975 34.632 51.4308 35.512C52.7108 37.2947 54.0602 39.0254 55.5135 40.6734C56.1268 41.3694 56.7935 41.8694 57.7855 41.9934C59.4002 42.1947 61.0122 42.4787 62.5909 43.1534ZM35.5002 64.1907C49.5682 63.1534 59.5068 52.764 62.1802 44.084C61.3895 43.9907 60.5815 43.9614 59.8082 43.788C58.4989 43.4947 56.9655 43.6494 55.9388 42.7454C51.6349 38.952 47.2189 35.272 43.6882 30.676C42.4869 29.1134 41.3255 27.5227 40.1668 25.8534C39.5575 26.3507 39.1282 26.8787 38.7682 27.48C37.3202 29.9027 37.0055 32.572 37.4802 35.2494C38.1082 38.7854 37.8562 42.2 37.0629 45.6774C35.6802 51.7454 35.3455 57.9254 35.5002 64.1907ZM25.5389 25.9374C25.4375 25.952 25.3442 25.936 25.3109 25.9734C25.1522 26.1547 24.9975 26.344 24.8602 26.544C22.0762 30.5987 19.0002 34.4 15.2935 37.6614C14.1162 38.6974 12.8802 39.6814 11.8149 40.8227C10.2269 42.524 8.36685 43.552 6.04285 43.7534C5.25219 43.8214 4.46952 43.9627 3.68152 44.0694C7.32419 54.7267 18.2935 63.3747 30.0282 64.0974C30.1909 57.5 29.7375 50.9654 28.2602 44.5174C27.6749 41.964 27.2949 39.4027 27.8909 36.7734C28.2309 35.2787 28.2869 33.732 28.1802 32.196C28.0135 29.8054 27.3015 27.64 25.5389 25.9374Z" fill="white"/>
</svg>
